<mxfile host="app.diagrams.net" modified="2022-05-27T13:40:58.712Z" agent="5.0 (Windows)" etag="nR3wm9syjPHfgkPrL3h9" version="18.1.3" type="github">
  <diagram id="C5RBs43oDa-KdzZeNtuy" name="Page-1">
    <mxGraphModel dx="868" dy="440" grid="1" gridSize="10" guides="1" tooltips="1" connect="1" arrows="1" fold="1" page="1" pageScale="1" pageWidth="827" pageHeight="1169" math="0" shadow="0">
      <root>
        <mxCell id="WIyWlLk6GJQsqaUBKTNV-0" />
        <mxCell id="WIyWlLk6GJQsqaUBKTNV-1" parent="WIyWlLk6GJQsqaUBKTNV-0" />
        <mxCell id="9rcI5K_eGC0afjevRIX6-4" value="" style="edgeStyle=orthogonalEdgeStyle;rounded=0;orthogonalLoop=1;jettySize=auto;html=1;" edge="1" parent="WIyWlLk6GJQsqaUBKTNV-1" source="9rcI5K_eGC0afjevRIX6-1" target="9rcI5K_eGC0afjevRIX6-2">
          <mxGeometry relative="1" as="geometry" />
        </mxCell>
        <mxCell id="9rcI5K_eGC0afjevRIX6-1" value="Start" style="ellipse;whiteSpace=wrap;html=1;" vertex="1" parent="WIyWlLk6GJQsqaUBKTNV-1">
          <mxGeometry x="115" y="80" width="90" height="60" as="geometry" />
        </mxCell>
        <mxCell id="9rcI5K_eGC0afjevRIX6-6" value="" style="edgeStyle=orthogonalEdgeStyle;rounded=0;orthogonalLoop=1;jettySize=auto;html=1;" edge="1" parent="WIyWlLk6GJQsqaUBKTNV-1" source="9rcI5K_eGC0afjevRIX6-2" target="9rcI5K_eGC0afjevRIX6-5">
          <mxGeometry relative="1" as="geometry" />
        </mxCell>
        <mxCell id="9rcI5K_eGC0afjevRIX6-2" value="User Item &lt;br&gt;Selection" style="shape=parallelogram;perimeter=parallelogramPerimeter;whiteSpace=wrap;html=1;fixedSize=1;" vertex="1" parent="WIyWlLk6GJQsqaUBKTNV-1">
          <mxGeometry x="100" y="170" width="120" height="60" as="geometry" />
        </mxCell>
        <mxCell id="9rcI5K_eGC0afjevRIX6-8" value="" style="edgeStyle=orthogonalEdgeStyle;rounded=0;orthogonalLoop=1;jettySize=auto;html=1;" edge="1" parent="WIyWlLk6GJQsqaUBKTNV-1" source="9rcI5K_eGC0afjevRIX6-5" target="9rcI5K_eGC0afjevRIX6-7">
          <mxGeometry relative="1" as="geometry" />
        </mxCell>
        <mxCell id="9rcI5K_eGC0afjevRIX6-5" value="Request text data&lt;br&gt;from API" style="rounded=1;whiteSpace=wrap;html=1;" vertex="1" parent="WIyWlLk6GJQsqaUBKTNV-1">
          <mxGeometry x="100" y="270" width="120" height="60" as="geometry" />
        </mxCell>
        <mxCell id="9rcI5K_eGC0afjevRIX6-15" value="" style="edgeStyle=orthogonalEdgeStyle;rounded=0;orthogonalLoop=1;jettySize=auto;html=1;" edge="1" parent="WIyWlLk6GJQsqaUBKTNV-1" source="9rcI5K_eGC0afjevRIX6-7" target="9rcI5K_eGC0afjevRIX6-10">
          <mxGeometry relative="1" as="geometry" />
        </mxCell>
        <mxCell id="9rcI5K_eGC0afjevRIX6-21" value="" style="edgeStyle=orthogonalEdgeStyle;rounded=0;orthogonalLoop=1;jettySize=auto;html=1;" edge="1" parent="WIyWlLk6GJQsqaUBKTNV-1" source="9rcI5K_eGC0afjevRIX6-7" target="9rcI5K_eGC0afjevRIX6-20">
          <mxGeometry relative="1" as="geometry" />
        </mxCell>
        <mxCell id="9rcI5K_eGC0afjevRIX6-7" value="OK" style="rhombus;whiteSpace=wrap;html=1;" vertex="1" parent="WIyWlLk6GJQsqaUBKTNV-1">
          <mxGeometry x="120" y="370" width="80" height="80" as="geometry" />
        </mxCell>
        <mxCell id="9rcI5K_eGC0afjevRIX6-17" value="" style="edgeStyle=orthogonalEdgeStyle;rounded=0;orthogonalLoop=1;jettySize=auto;html=1;" edge="1" parent="WIyWlLk6GJQsqaUBKTNV-1" source="9rcI5K_eGC0afjevRIX6-9" target="9rcI5K_eGC0afjevRIX6-11">
          <mxGeometry relative="1" as="geometry" />
        </mxCell>
        <mxCell id="9rcI5K_eGC0afjevRIX6-9" value="Reload List" style="rounded=1;whiteSpace=wrap;html=1;" vertex="1" parent="WIyWlLk6GJQsqaUBKTNV-1">
          <mxGeometry x="350" y="480" width="120" height="60" as="geometry" />
        </mxCell>
        <mxCell id="9rcI5K_eGC0afjevRIX6-16" value="" style="edgeStyle=orthogonalEdgeStyle;rounded=0;orthogonalLoop=1;jettySize=auto;html=1;" edge="1" parent="WIyWlLk6GJQsqaUBKTNV-1" source="9rcI5K_eGC0afjevRIX6-10" target="9rcI5K_eGC0afjevRIX6-9">
          <mxGeometry relative="1" as="geometry" />
        </mxCell>
        <mxCell id="9rcI5K_eGC0afjevRIX6-10" value="Display Error" style="rounded=1;whiteSpace=wrap;html=1;" vertex="1" parent="WIyWlLk6GJQsqaUBKTNV-1">
          <mxGeometry x="350" y="380" width="120" height="60" as="geometry" />
        </mxCell>
        <mxCell id="9rcI5K_eGC0afjevRIX6-11" value="Complete" style="ellipse;whiteSpace=wrap;html=1;" vertex="1" parent="WIyWlLk6GJQsqaUBKTNV-1">
          <mxGeometry x="350" y="570" width="120" height="80" as="geometry" />
        </mxCell>
        <mxCell id="9rcI5K_eGC0afjevRIX6-18" value="No" style="text;html=1;resizable=0;autosize=1;align=center;verticalAlign=middle;points=[];fillColor=none;strokeColor=none;rounded=0;" vertex="1" parent="WIyWlLk6GJQsqaUBKTNV-1">
          <mxGeometry x="265" y="410" width="30" height="20" as="geometry" />
        </mxCell>
        <mxCell id="9rcI5K_eGC0afjevRIX6-26" value="" style="edgeStyle=orthogonalEdgeStyle;rounded=0;orthogonalLoop=1;jettySize=auto;html=1;" edge="1" parent="WIyWlLk6GJQsqaUBKTNV-1" source="9rcI5K_eGC0afjevRIX6-20" target="9rcI5K_eGC0afjevRIX6-25">
          <mxGeometry relative="1" as="geometry" />
        </mxCell>
        <mxCell id="9rcI5K_eGC0afjevRIX6-20" value="Star Wars Info" style="shape=parallelogram;perimeter=parallelogramPerimeter;whiteSpace=wrap;html=1;fixedSize=1;" vertex="1" parent="WIyWlLk6GJQsqaUBKTNV-1">
          <mxGeometry x="100" y="490" width="120" height="60" as="geometry" />
        </mxCell>
        <mxCell id="9rcI5K_eGC0afjevRIX6-23" value="&lt;div&gt;Yes&lt;/div&gt;" style="text;html=1;resizable=0;autosize=1;align=center;verticalAlign=middle;points=[];fillColor=none;strokeColor=none;rounded=0;" vertex="1" parent="WIyWlLk6GJQsqaUBKTNV-1">
          <mxGeometry x="160" y="450" width="40" height="20" as="geometry" />
        </mxCell>
        <mxCell id="9rcI5K_eGC0afjevRIX6-29" value="" style="edgeStyle=orthogonalEdgeStyle;rounded=0;orthogonalLoop=1;jettySize=auto;html=1;" edge="1" parent="WIyWlLk6GJQsqaUBKTNV-1" source="9rcI5K_eGC0afjevRIX6-25" target="9rcI5K_eGC0afjevRIX6-28">
          <mxGeometry relative="1" as="geometry" />
        </mxCell>
        <mxCell id="9rcI5K_eGC0afjevRIX6-25" value="Display Data" style="rounded=1;whiteSpace=wrap;html=1;" vertex="1" parent="WIyWlLk6GJQsqaUBKTNV-1">
          <mxGeometry x="100" y="585" width="120" height="60" as="geometry" />
        </mxCell>
        <mxCell id="9rcI5K_eGC0afjevRIX6-28" value="Complete" style="ellipse;whiteSpace=wrap;html=1;" vertex="1" parent="WIyWlLk6GJQsqaUBKTNV-1">
          <mxGeometry x="100" y="680" width="120" height="80" as="geometry" />
        </mxCell>
      </root>
    </mxGraphModel>
  </diagram>
</mxfile>
